<mxfile host="app.diagrams.net" agent="Mozilla/5.0 (Windows NT 10.0; Win64; x64) AppleWebKit/537.36 (KHTML, like Gecko) Chrome/134.0.0.0 Safari/537.36" version="26.2.4" pages="2">
  <diagram name="Casos de Uso" id="978qXqfHhKlAyuY9ruNd">
    <mxGraphModel dx="1428" dy="1946" grid="1" gridSize="10" guides="1" tooltips="1" connect="1" arrows="1" fold="1" page="1" pageScale="1" pageWidth="827" pageHeight="1169" math="0" shadow="0">
      <root>
        <mxCell id="0" />
        <mxCell id="1" parent="0" />
        <mxCell id="wZvYwobqI2S4H7QkN7qg-7" style="edgeStyle=orthogonalEdgeStyle;rounded=0;orthogonalLoop=1;jettySize=auto;html=1;exitX=0.5;exitY=0;exitDx=0;exitDy=0;exitPerimeter=0;entryX=0.5;entryY=1;entryDx=0;entryDy=0;" edge="1" parent="1" source="wZvYwobqI2S4H7QkN7qg-1" target="wZvYwobqI2S4H7QkN7qg-2">
          <mxGeometry relative="1" as="geometry" />
        </mxCell>
        <mxCell id="wZvYwobqI2S4H7QkN7qg-9" style="edgeStyle=orthogonalEdgeStyle;rounded=0;orthogonalLoop=1;jettySize=auto;html=1;exitX=0.5;exitY=0;exitDx=0;exitDy=0;exitPerimeter=0;entryX=0.5;entryY=1;entryDx=0;entryDy=0;" edge="1" parent="1" source="wZvYwobqI2S4H7QkN7qg-1" target="wZvYwobqI2S4H7QkN7qg-4">
          <mxGeometry relative="1" as="geometry" />
        </mxCell>
        <mxCell id="wZvYwobqI2S4H7QkN7qg-1" value="Passageiros" style="shape=umlActor;verticalLabelPosition=bottom;verticalAlign=top;html=1;outlineConnect=0;" vertex="1" parent="1">
          <mxGeometry x="220" y="350" width="60" height="120" as="geometry" />
        </mxCell>
        <mxCell id="wZvYwobqI2S4H7QkN7qg-2" value="Comprar Passagens" style="ellipse;whiteSpace=wrap;html=1;" vertex="1" parent="1">
          <mxGeometry x="280" y="250" width="120" height="80" as="geometry" />
        </mxCell>
        <mxCell id="wZvYwobqI2S4H7QkN7qg-4" value="Realizar Check-in" style="ellipse;whiteSpace=wrap;html=1;" vertex="1" parent="1">
          <mxGeometry x="100" y="250" width="120" height="80" as="geometry" />
        </mxCell>
        <mxCell id="wZvYwobqI2S4H7QkN7qg-11" style="edgeStyle=orthogonalEdgeStyle;rounded=0;orthogonalLoop=1;jettySize=auto;html=1;exitX=0.5;exitY=0;exitDx=0;exitDy=0;exitPerimeter=0;entryX=0.5;entryY=1;entryDx=0;entryDy=0;" edge="1" parent="1" source="wZvYwobqI2S4H7QkN7qg-13" target="wZvYwobqI2S4H7QkN7qg-14">
          <mxGeometry relative="1" as="geometry" />
        </mxCell>
        <mxCell id="wZvYwobqI2S4H7QkN7qg-12" style="edgeStyle=orthogonalEdgeStyle;rounded=0;orthogonalLoop=1;jettySize=auto;html=1;exitX=0.5;exitY=0;exitDx=0;exitDy=0;exitPerimeter=0;entryX=0.5;entryY=1;entryDx=0;entryDy=0;" edge="1" parent="1" source="wZvYwobqI2S4H7QkN7qg-13" target="wZvYwobqI2S4H7QkN7qg-15">
          <mxGeometry relative="1" as="geometry" />
        </mxCell>
        <mxCell id="wZvYwobqI2S4H7QkN7qg-13" value="Companhias Aéreas" style="shape=umlActor;verticalLabelPosition=bottom;verticalAlign=top;html=1;outlineConnect=0;" vertex="1" parent="1">
          <mxGeometry x="530" y="350" width="60" height="120" as="geometry" />
        </mxCell>
        <mxCell id="wZvYwobqI2S4H7QkN7qg-14" value="Gerenciar Reservas" style="ellipse;whiteSpace=wrap;html=1;" vertex="1" parent="1">
          <mxGeometry x="590" y="250" width="120" height="80" as="geometry" />
        </mxCell>
        <mxCell id="wZvYwobqI2S4H7QkN7qg-15" value="Cadastrar voos" style="ellipse;whiteSpace=wrap;html=1;" vertex="1" parent="1">
          <mxGeometry x="414" y="250" width="120" height="80" as="geometry" />
        </mxCell>
        <mxCell id="wZvYwobqI2S4H7QkN7qg-20" style="edgeStyle=orthogonalEdgeStyle;rounded=0;orthogonalLoop=1;jettySize=auto;html=1;exitX=0.25;exitY=0.1;exitDx=0;exitDy=0;exitPerimeter=0;entryX=0.5;entryY=1;entryDx=0;entryDy=0;" edge="1" parent="1" source="wZvYwobqI2S4H7QkN7qg-17" target="wZvYwobqI2S4H7QkN7qg-18">
          <mxGeometry relative="1" as="geometry" />
        </mxCell>
        <mxCell id="wZvYwobqI2S4H7QkN7qg-21" style="edgeStyle=orthogonalEdgeStyle;rounded=0;orthogonalLoop=1;jettySize=auto;html=1;exitX=0.75;exitY=0.1;exitDx=0;exitDy=0;exitPerimeter=0;entryX=0.5;entryY=1;entryDx=0;entryDy=0;" edge="1" parent="1" source="wZvYwobqI2S4H7QkN7qg-17" target="wZvYwobqI2S4H7QkN7qg-19">
          <mxGeometry relative="1" as="geometry" />
        </mxCell>
        <mxCell id="wZvYwobqI2S4H7QkN7qg-22" style="edgeStyle=orthogonalEdgeStyle;rounded=0;orthogonalLoop=1;jettySize=auto;html=1;exitX=0.5;exitY=0;exitDx=0;exitDy=0;exitPerimeter=0;" edge="1" parent="1" source="wZvYwobqI2S4H7QkN7qg-17" target="wZvYwobqI2S4H7QkN7qg-23">
          <mxGeometry relative="1" as="geometry">
            <mxPoint x="400" y="520" as="targetPoint" />
          </mxGeometry>
        </mxCell>
        <mxCell id="wZvYwobqI2S4H7QkN7qg-17" value="Torre de Controle" style="shape=umlActor;verticalLabelPosition=bottom;verticalAlign=top;html=1;outlineConnect=0;" vertex="1" parent="1">
          <mxGeometry x="370" y="670" width="60" height="120" as="geometry" />
        </mxCell>
        <mxCell id="wZvYwobqI2S4H7QkN7qg-18" value="Autorizar Decolagens" style="ellipse;whiteSpace=wrap;html=1;" vertex="1" parent="1">
          <mxGeometry x="250" y="545" width="120" height="80" as="geometry" />
        </mxCell>
        <mxCell id="wZvYwobqI2S4H7QkN7qg-19" value="Autorizar Pousos" style="ellipse;whiteSpace=wrap;html=1;" vertex="1" parent="1">
          <mxGeometry x="430" y="545" width="120" height="80" as="geometry" />
        </mxCell>
        <mxCell id="wZvYwobqI2S4H7QkN7qg-23" value="Gerenciar Pistas" style="ellipse;whiteSpace=wrap;html=1;" vertex="1" parent="1">
          <mxGeometry x="340" y="470" width="120" height="80" as="geometry" />
        </mxCell>
        <mxCell id="ryrk29X-_X3ViU6UFcZI-3" style="edgeStyle=orthogonalEdgeStyle;rounded=0;orthogonalLoop=1;jettySize=auto;html=1;exitX=0.5;exitY=0;exitDx=0;exitDy=0;exitPerimeter=0;" edge="1" parent="1" source="ryrk29X-_X3ViU6UFcZI-2" target="ryrk29X-_X3ViU6UFcZI-4">
          <mxGeometry relative="1" as="geometry">
            <mxPoint x="410" y="50" as="targetPoint" />
          </mxGeometry>
        </mxCell>
        <mxCell id="ryrk29X-_X3ViU6UFcZI-2" value="Sistema&lt;div&gt;&lt;br&gt;&lt;/div&gt;" style="shape=umlActor;verticalLabelPosition=bottom;verticalAlign=top;html=1;outlineConnect=0;" vertex="1" parent="1">
          <mxGeometry x="380" y="100" width="60" height="120" as="geometry" />
        </mxCell>
        <mxCell id="ryrk29X-_X3ViU6UFcZI-4" value="Gerenciar Operações Aeroportuárias" style="ellipse;whiteSpace=wrap;html=1;" vertex="1" parent="1">
          <mxGeometry x="350" y="-40" width="120" height="80" as="geometry" />
        </mxCell>
      </root>
    </mxGraphModel>
  </diagram>
  <diagram id="IeBxVa5ijmAo5wNwgdK-" name="Classes">
    <mxGraphModel dx="1428" dy="777" grid="1" gridSize="10" guides="1" tooltips="1" connect="1" arrows="1" fold="1" page="1" pageScale="1" pageWidth="827" pageHeight="1169" math="0" shadow="0">
      <root>
        <mxCell id="0" />
        <mxCell id="1" parent="0" />
        <mxCell id="k0jSgI4GBoBRbjS9LWmk-1" value="Actor" style="shape=umlActor;verticalLabelPosition=bottom;verticalAlign=top;html=1;outlineConnect=0;" vertex="1" parent="1">
          <mxGeometry x="400" y="310" width="60" height="120" as="geometry" />
        </mxCell>
      </root>
    </mxGraphModel>
  </diagram>
</mxfile>
